<?xml version="1.0" encoding="UTF-8" standalone="no"?>
<!-- Generator: Adobe Illustrator 18.0.0, SVG Export Plug-In . SVG Version: 6.00 Build 0)  -->

<svg
   xmlns:dc="http://purl.org/dc/elements/1.1/"
   xmlns:cc="http://creativecommons.org/ns#"
   xmlns:rdf="http://www.w3.org/1999/02/22-rdf-syntax-ns#"
   xmlns:svg="http://www.w3.org/2000/svg"
   xmlns="http://www.w3.org/2000/svg"
   xmlns:sodipodi="http://sodipodi.sourceforge.net/DTD/sodipodi-0.dtd"
   xmlns:inkscape="http://www.inkscape.org/namespaces/inkscape"
   version="1.1"
   id="Capa_1"
   x="0px"
   y="0px"
   viewBox="0 0 60 60"
   style="enable-background:new 0 0 60 60;"
   xml:space="preserve"
   sodipodi:docname="001-interface-colour.svg"
   inkscape:export-filename="C:\Files\Documents\nikola\Mallcock1.github.io\files\icon-speech.png"
   inkscape:export-xdpi="96"
   inkscape:export-ydpi="96"
   inkscape:version="0.92.1 r15371"><metadata
     id="metadata6702"><rdf:RDF><cc:Work
         rdf:about=""><dc:format>image/svg+xml</dc:format><dc:type
           rdf:resource="http://purl.org/dc/dcmitype/StillImage" /><dc:title></dc:title></cc:Work></rdf:RDF></metadata><defs
     id="defs6700" /><sodipodi:namedview
     pagecolor="#ffffff"
     bordercolor="#666666"
     borderopacity="1"
     objecttolerance="10"
     gridtolerance="10"
     guidetolerance="10"
     inkscape:pageopacity="0"
     inkscape:pageshadow="2"
     inkscape:window-width="1366"
     inkscape:window-height="706"
     id="namedview6698"
     showgrid="false"
     inkscape:zoom="11.313709"
     inkscape:cx="31.158952"
     inkscape:cy="27.835192"
     inkscape:window-x="-8"
     inkscape:window-y="-8"
     inkscape:window-maximized="1"
     inkscape:current-layer="Capa_1" /><g
     id="g6665"><path
       d="M10,25.465h13c0.553,0,1-0.448,1-1s-0.447-1-1-1H10c-0.553,0-1,0.448-1,1S9.447,25.465,10,25.465z"
       id="path6657" /><path
       d="M36,29.465H10c-0.553,0-1,0.448-1,1s0.447,1,1,1h26c0.553,0,1-0.448,1-1S36.553,29.465,36,29.465z"
       id="path6659" /><path
       d="M36,35.465H10c-0.553,0-1,0.448-1,1s0.447,1,1,1h26c0.553,0,1-0.448,1-1S36.553,35.465,36,35.465z"
       id="path6661" /><path
       d="M54.072,2.535L19.93,2.465c-3.27,0-5.93,2.66-5.93,5.93v5.124l-8.07,0.017c-3.27,0-5.93,2.66-5.93,5.93v21.141   c0,3.27,2.66,5.929,5.93,5.929H12v10c0,0.413,0.254,0.784,0.64,0.933c0.117,0.045,0.239,0.067,0.36,0.067   c0.276,0,0.547-0.115,0.74-0.327l9.704-10.675l16.626-0.068c3.27,0,5.93-2.66,5.93-5.929v-0.113l5.26,5.786   c0.193,0.212,0.464,0.327,0.74,0.327c0.121,0,0.243-0.022,0.36-0.067c0.386-0.149,0.64-0.52,0.64-0.933v-10h1.07   c3.27,0,5.93-2.66,5.93-5.929V8.465C60,5.196,57.341,2.536,54.072,2.535z M44,40.536c0,2.167-1.763,3.929-3.934,3.929l-17.07,0.07   c-0.28,0.001-0.548,0.12-0.736,0.327L14,53.949v-8.414c0-0.552-0.447-1-1-1H5.93c-2.167,0-3.93-1.763-3.93-3.929V19.465   c0-2.167,1.763-3.93,3.932-3.93l9.068-0.019c0,0,0,0,0,0c0.001,0,0.001,0,0.002,0l25.068-0.052c2.167,0,3.93,1.763,3.93,3.93   v18.441V40.536z M58,29.606c0,2.167-1.763,3.929-3.93,3.929H52c-0.553,0-1,0.448-1,1v8.414l-5-5.5V19.395   c0-3.27-2.66-5.93-5.932-5.93L16,13.514v-5.12c0-2.167,1.763-3.93,3.928-3.93l34.141,0.07c0.001,0,0.001,0,0.002,0   c2.167,0,3.93,1.763,3.93,3.93V29.606z"
       id="path6663" /></g><g
     id="g6667" /><g
     id="g6669" /><g
     id="g6671" /><g
     id="g6673" /><g
     id="g6675" /><g
     id="g6677" /><g
     id="g6679" /><g
     id="g6681" /><g
     id="g6683" /><g
     id="g6685" /><g
     id="g6687" /><g
     id="g6689" /><g
     id="g6691" /><g
     id="g6693" /><g
     id="g6695" /><path
     style="fill:#006bff;fill-opacity:0.39215686;fill-rule:nonzero;stroke:none;stroke-width:0.04804484;stroke-miterlimit:4;stroke-dasharray:none;stroke-opacity:1;paint-order:stroke fill markers"
     d="m 14.01173,49.471206 c 0,-4.079979 -0.01442,-4.355437 -0.242795,-4.637713 L 13.526141,44.533394 9.2244439,44.469835 C 4.9920133,44.407299 4.9126707,44.401316 4.2969535,44.098278 3.5003194,43.706199 2.826214,43.032093 2.4341343,42.235459 L 2.1261371,41.609665 V 30.041868 18.474072 l 0.2771582,-0.599946 c 0.3778331,-0.81787 1.2966507,-1.680864 2.1100055,-1.981809 0.641822,-0.237478 1.2520567,-0.247155 18.5256902,-0.29377 l 17.862008,-0.0482 0.848364,0.417237 c 0.949455,0.466955 1.399135,0.928276 1.840379,1.888022 l 0.300087,0.652717 -0.03439,11.614232 c -0.03439,11.613476 -0.03441,11.614266 -0.30795,12.122707 -0.399702,0.742935 -1.154523,1.450504 -1.951015,1.828882 l -0.699152,0.332135 -8.961865,0.03264 c -4.929025,0.01795 -9.086621,0.06095 -9.239102,0.09556 -0.157382,0.03572 -1.910132,1.862624 -4.054298,4.225833 -2.077383,2.289604 -3.969046,4.362176 -4.203694,4.605714 L 14.01173,53.808818 Z M 36.725995,37.201914 c 0.388106,-0.364608 0.396573,-1.060123 0.01782,-1.463293 l -0.276397,-0.29421 h -13.43834 c -12.996345,0 -13.4481101,0.0079 -13.7355454,0.240666 -0.2264315,0.183353 -0.2972105,0.368221 -0.2972105,0.776283 0,0.408062 0.070779,0.59293 0.2972105,0.776283 0.2874297,0.232747 0.7388664,0.240666 13.7177314,0.240666 h 13.420521 z m -0.01781,-6.0102 c 0.428207,-0.428206 0.421286,-1.066437 -0.01602,-1.477264 L 36.364129,29.406275 H 22.952347 9.540565 l -0.3198151,0.371807 c -0.257658,0.299546 -0.3056822,0.460134 -0.2470971,0.826271 0.039995,0.249956 0.1952018,0.554571 0.3449042,0.676922 0.2553982,0.208737 1.098846,0.222458 13.674899,0.222458 H 36.396168 Z M 23.536537,25.34318 c 0.608799,-0.314822 0.699823,-0.986266 0.210776,-1.554816 l -0.30679,-0.356665 H 16.490544 9.540565 l -0.3067903,0.356665 c -0.1687346,0.196166 -0.3067901,0.46519 -0.3067901,0.597832 0,0.384981 0.2604466,0.851777 0.5547562,0.994284 0.1757751,0.08511 2.6381962,0.134503 6.9833362,0.140073 5.654114,0.0072 6.768496,-0.0207 7.07146,-0.177373 z"
     id="path7247"
     inkscape:connector-curvature="0" /><path
     style="fill:#006bff;fill-opacity:0.39215686;fill-rule:nonzero;stroke:none;stroke-width:0.00849321;stroke-miterlimit:4;stroke-dasharray:none;stroke-opacity:1;paint-order:stroke fill markers"
     d="m 41.55436,44.09908 c 0.571216,-0.283738 0.929951,-0.547791 1.369928,-1.00836 0.426375,-0.446332 0.716603,-0.91635 0.774898,-1.254932 0.04991,-0.289901 0.07756,-0.750553 0.101815,-1.696607 0.02555,-0.996306 0.06593,-8.510442 0.06663,-12.398713 l 4.61e-4,-2.54491 h 0.05643 0.05643 l -0.0066,7.938097 -0.0066,7.938098 -0.04936,0.224716 c -0.127867,0.582136 -0.389348,1.160006 -0.721943,1.595485 -0.442848,0.579836 -1.041844,1.031823 -1.724285,1.301102 -0.325815,0.128561 -0.295097,0.09348 0.08228,-0.09398 z"
     id="path7249"
     inkscape:connector-curvature="0" /><path
     style="fill:#006bff;fill-opacity:0.39215686;fill-rule:nonzero;stroke:none;stroke-width:0.00849321;stroke-miterlimit:4;stroke-dasharray:none;stroke-opacity:1;paint-order:stroke fill markers"
     d="m 36.642663,35.688908 c -0.02282,-0.02521 -0.117394,-0.08335 -0.210176,-0.129212 l -0.168695,-0.08338 -5.405592,-0.01137 -5.405592,-0.01137 5.505545,-0.0055 5.505546,-0.0055 0.130608,0.146053 c 0.07184,0.08033 0.121436,0.146053 0.110223,0.146053 -0.01121,0 -0.03905,-0.02063 -0.06187,-0.04584 z"
     id="path7251"
     inkscape:connector-curvature="0" /><path
     style="fill:#006bff;fill-opacity:0.39215686;fill-rule:nonzero;stroke:none;stroke-width:0.00849321;stroke-miterlimit:4;stroke-dasharray:none;stroke-opacity:1;paint-order:stroke fill markers"
     d="m 36.287838,37.432722 c 0.05159,-0.01613 0.141345,-0.0559 0.199457,-0.08838 0.05811,-0.03248 0.111493,-0.05905 0.118624,-0.05905 0.0071,0 -0.02653,0.04045 -0.07481,0.08989 -0.08214,0.08412 -0.09577,0.08979 -0.212423,0.08838 l -0.124651,-0.0015 z"
     id="path7253"
     inkscape:connector-curvature="0" /><path
     style="fill:#006bff;fill-opacity:0.39215686;fill-rule:nonzero;stroke:none;stroke-width:0.00849321;stroke-miterlimit:4;stroke-dasharray:none;stroke-opacity:1;paint-order:stroke fill markers"
     d="m 30.857031,31.465275 5.404423,-0.01137 0.131927,-0.0618 c 0.07256,-0.03399 0.137745,-0.0618 0.144856,-0.0618 0.0071,0 -0.02138,0.03539 -0.0633,0.07865 l -0.07623,0.07865 -5.473048,-0.0055 -5.473047,-0.0055 z"
     id="path7255"
     inkscape:connector-curvature="0" /><path
     style="fill:#006bff;fill-opacity:0.39215686;fill-rule:nonzero;stroke:none;stroke-width:0.00849321;stroke-miterlimit:4;stroke-dasharray:none;stroke-opacity:1;paint-order:stroke fill markers"
     d=""
     id="path7257"
     inkscape:connector-curvature="0" /><path
     style="fill:#006bff;fill-opacity:0.39215686;fill-rule:nonzero;stroke:none;stroke-width:0.00849321;stroke-miterlimit:4;stroke-dasharray:none;stroke-opacity:1;paint-order:stroke fill markers"
     d="M 36.385048,29.536324 36.261454,29.4764 30.862649,29.4706 c -3.550917,-0.0038 -5.398805,-0.01343 -5.398805,-0.02809 0,-0.01468 1.863381,-0.02229 5.456041,-0.02229 h 5.456042 l 0.08777,0.08989 c 0.10183,0.104284 0.09029,0.108129 -0.07865,0.02622 z"
     id="path7259"
     inkscape:connector-curvature="0" /><path
     style="fill:#006bff;fill-opacity:0.39215686;fill-rule:nonzero;stroke:none;stroke-width:0.0042466;stroke-miterlimit:4;stroke-dasharray:none;stroke-opacity:1;paint-order:stroke fill markers"
     d="m 9.0146384,36.213121 c 2.746e-4,-0.09783 0.064504,-0.286483 0.1236111,-0.363062 0.043335,-0.05614 0.1398647,-0.150537 0.1877636,-0.183608 0.046248,-0.03193 0.1368837,-0.07031 0.1455598,-0.06163 0.00236,0.0024 -0.020683,0.02032 -0.051209,0.03991 -0.079776,0.05119 -0.2260347,0.208117 -0.2824012,0.302995 -0.026604,0.04478 -0.065257,0.130401 -0.085895,0.190263 -0.024812,0.07197 -0.037491,0.09742 -0.037429,0.07513 z"
     id="path7261"
     inkscape:connector-curvature="0" /><path
     style="fill:#006bff;fill-opacity:0.39215686;fill-rule:nonzero;stroke:none;stroke-width:0.0042466;stroke-miterlimit:4;stroke-dasharray:none;stroke-opacity:1;paint-order:stroke fill markers"
     d="m 9.3545995,37.274785 c -0.087671,-0.05028 -0.2045933,-0.173218 -0.2537988,-0.266856 -0.043311,-0.08242 -0.086535,-0.226666 -0.086357,-0.288185 7.01e-5,-0.02419 0.011441,-0.0018 0.037505,0.07378 0.020572,0.05967 0.061976,0.148153 0.092008,0.196626 0.052131,0.08414 0.1976277,0.242901 0.2692576,0.293802 0.050899,0.03617 0.00901,0.02962 -0.058614,-0.0092 z"
     id="path7263"
     inkscape:connector-curvature="0" /><path
     style="fill:#006bff;fill-opacity:0.39215686;fill-rule:nonzero;stroke:none;stroke-width:0.0042466;stroke-miterlimit:4;stroke-dasharray:none;stroke-opacity:1;paint-order:stroke fill markers"
     d="M 9.4079839,31.328889 C 9.2294581,31.260354 9.0282821,30.91461 8.974697,30.584236 8.965657,30.528476 8.958309,30.434826 8.958375,30.376119 8.9586619,30.122827 9.015428,30.018097 9.3816344,29.59523 l 0.155685,-0.179772 4.4463146,-0.0028 c 4.430271,-0.0028 4.446315,-0.0027 4.446315,0.0195 0,0.02224 -0.0178,0.02234 -4.283651,0.02578 -3.998397,0.0032 -4.2887729,0.0047 -4.3605548,0.02268 -0.2050024,0.05126 -0.3727353,0.148497 -0.5151508,0.298655 -0.1532066,0.161535 -0.2417569,0.352174 -0.2683605,0.577749 -0.042434,0.359806 0.1328986,0.737987 0.4361947,0.940844 0.09209,0.06159 0.080342,0.07357 -0.030443,0.03104 z"
     id="path7265"
     inkscape:connector-curvature="0" /><path
     style="fill:#006bff;fill-opacity:0.39215686;fill-rule:nonzero;stroke:none;stroke-width:0.0021233;stroke-miterlimit:4;stroke-dasharray:none;stroke-opacity:1;paint-order:stroke fill markers"
     d="m 9.5502426,25.395589 c -0.055017,-0.0092 -0.080368,-0.01959 -0.1332758,-0.05447 -0.2133131,-0.140667 -0.4011437,-0.444349 -0.4666433,-0.754463 -0.013189,-0.06244 -0.015356,-0.0861 -0.015654,-0.170793 -3.441e-4,-0.09789 -2.62e-4,-0.09856 0.019036,-0.154492 0.03813,-0.110524 0.1304773,-0.276579 0.2194174,-0.394544 0.015772,-0.02092 0.1050098,-0.127122 0.1983059,-0.236007 l 0.1696292,-0.197972 2.071602,-5.9e-5 2.071602,-5.9e-5 v 0.01396 0.01396 l -1.894638,0.002 c -1.437055,0.0015 -1.9034573,0.0036 -1.9311544,0.0087 -0.1088425,0.01999 -0.187112,0.0429 -0.2645673,0.07741 -0.2992042,0.133327 -0.5136532,0.401345 -0.576542,0.72056 -0.024132,0.122489 -0.02404,0.277627 2.321e-4,0.39403 0.065287,0.313098 0.2674936,0.571234 0.5545648,0.707958 0.023063,0.01098 0.048254,0.02282 0.055978,0.02631 0.013238,0.006 0.012754,0.0063 -0.00843,0.0061 -0.012359,-1.05e-4 -0.043619,-0.0037 -0.069465,-0.0081 z"
     id="path7267"
     inkscape:connector-curvature="0" /><path
     style="fill:#006bff;fill-opacity:0.39215686;fill-rule:nonzero;stroke:none;stroke-width:0.0030028;stroke-miterlimit:4;stroke-dasharray:none;stroke-opacity:1;paint-order:stroke fill markers"
     d="m 23.487476,25.342358 c 0.09112,-0.05205 0.158777,-0.104573 0.231569,-0.179776 0.111203,-0.114886 0.187581,-0.240867 0.234143,-0.386203 0.03922,-0.122434 0.04967,-0.202761 0.04515,-0.34738 -0.0043,-0.136744 -0.02105,-0.22232 -0.06526,-0.332842 -0.01179,-0.02948 -0.01969,-0.05535 -0.01755,-0.05749 0.0054,-0.0054 0.05901,0.108354 0.08242,0.174701 0.04475,0.126888 0.05386,0.182717 0.05396,0.330835 8.2e-5,0.126795 -0.0018,0.145804 -0.02131,0.215915 -0.02748,0.09875 -0.05858,0.166736 -0.115257,0.251954 -0.08939,0.134419 -0.256512,0.27428 -0.405408,0.339287 -0.08633,0.03769 -0.09683,0.03349 -0.02245,-0.009 z"
     id="path7269"
     inkscape:connector-curvature="0" /><path
     style="fill:#006bff;fill-opacity:0.39215686;fill-rule:nonzero;stroke:none;stroke-width:0.0030028;stroke-miterlimit:4;stroke-dasharray:none;stroke-opacity:1;paint-order:stroke fill markers"
     d="m 23.635095,23.688502 c -0.09494,-0.07933 -0.21022,-0.141635 -0.335034,-0.181064 -0.146626,-0.04632 0.02514,-0.04368 -2.844918,-0.04371 -2.630419,-3.1e-5 -2.635726,-6.3e-5 -2.635726,-0.01592 0,-0.01586 0.0051,-0.01589 2.810514,-0.01535 l 2.810514,5.35e-4 0.125971,0.146931 c 0.06928,0.08081 0.1247,0.148013 0.123146,0.149336 -0.0016,0.0013 -0.02606,-0.01701 -0.05447,-0.04075 z"
     id="path7271"
     inkscape:connector-curvature="0" /><path
     style="fill:#006bff;fill-opacity:0.39215686;fill-rule:nonzero;stroke:none;stroke-width:0.0030028;stroke-miterlimit:4;stroke-dasharray:none;stroke-opacity:1;paint-order:stroke fill markers"
     d="m 17.819417,25.494724 v -0.02891 l 2.393406,0.0012 c 1.316373,6.53e-4 2.339777,0.0039 2.274232,0.0072 -0.440874,0.02238 -1.518294,0.03659 -3.334878,0.04398 l -1.33276,0.0054 z"
     id="path7273"
     inkscape:connector-curvature="0" /><path
     style="fill:#006bff;fill-opacity:0.39215686;fill-rule:nonzero;stroke:none;stroke-width:0.0030028;stroke-miterlimit:4;stroke-dasharray:none;stroke-opacity:1;paint-order:stroke fill markers"
     d="m 14.89419,25.512868 c -1.55695,-0.0064 -3.69587,-0.03006 -3.817531,-0.04215 -0.01311,-0.0013 1.498311,-0.0029 3.358713,-0.0036 l 3.382547,-0.0013 v 0.02781 0.02781 l -0.760725,-0.0014 c -0.4184,-7.56e-4 -1.391751,-0.004 -2.163004,-0.0072 z"
     id="path7275"
     inkscape:connector-curvature="0" /><path
     style="fill:#006bff;fill-opacity:0.39215686;fill-rule:nonzero;stroke:none;stroke-width:0.0030028;stroke-miterlimit:4;stroke-dasharray:none;stroke-opacity:1;paint-order:stroke fill markers"
     d="m 13.686563,23.447802 c 0,-0.01585 0.0049,-0.01589 2.091499,-0.01462 1.150325,7e-4 2.07988,0.0027 2.065678,0.0045 -0.0142,0.0018 -0.02582,0.0063 -0.02582,0.01014 0,0.0038 0.01162,0.0084 0.02582,0.01014 0.0142,0.0018 -0.915353,0.0038 -2.065678,0.0045 -2.086626,0.0013 -2.091499,0.0012 -2.091499,-0.01462 z"
     id="path7277"
     inkscape:connector-curvature="0" /><path
     style="fill:#006bff;fill-opacity:0.39215686;fill-rule:nonzero;stroke:none;stroke-width:0.0030028;stroke-miterlimit:4;stroke-dasharray:none;stroke-opacity:1;paint-order:stroke fill markers"
     d="m 16.947161,29.45499 c 0.797471,-0.0026 1.457992,-0.0076 1.467823,-0.01111 0.01504,-0.0053 0.02331,-0.01663 0.01589,-0.02173 -0.0011,-7.51e-4 -0.09137,-0.0036 -0.200609,-0.0063 -0.109242,-0.0027 1.117949,-0.0057 2.727092,-0.0066 l 2.925715,-0.0016 v 0.02781 0.02781 l -4.192929,-0.0017 c -2.884504,-0.0012 -3.740465,-0.0032 -2.742982,-0.0065 z"
     id="path7279"
     inkscape:connector-curvature="0" /><path
     style="fill:#006bff;fill-opacity:0.39215686;fill-rule:nonzero;stroke:none;stroke-width:0.0030028;stroke-miterlimit:4;stroke-dasharray:none;stroke-opacity:1;paint-order:stroke fill markers"
     d="m 13.884396,31.488763 c -0.519994,-0.0029 -1.073258,-0.0057 -1.229475,-0.0064 -0.183285,-7.47e-4 -0.284031,-0.004 -0.284031,-0.0091 0,-0.0053 1.923994,-0.0079 5.756091,-0.0079 5.750794,0 5.756091,1.5e-5 5.756091,0.01589 0,0.01587 -0.0048,0.01589 -4.526615,0.0143 -2.489639,-8.74e-4 -4.952066,-0.0039 -5.472061,-0.0068 z"
     id="path7281"
     inkscape:connector-curvature="0" /><path
     style="fill:#006bff;fill-opacity:0.39215686;fill-rule:nonzero;stroke:none;stroke-width:0.00600561;stroke-miterlimit:4;stroke-dasharray:none;stroke-opacity:1;paint-order:stroke fill markers"
     d="m 43.979193,29.422363 v -4.23464 h -0.0581 -0.0581 l 0.01043,-0.240873 c 0.0057,-0.132481 0.01043,-1.412407 0.01043,-2.84428 v -2.603406 h 0.05561 0.05562 v 7.07892 c 0,3.893405 -0.0036,7.078919 -0.0079,7.078919 -0.0044,0 -0.0079,-1.905588 -0.0079,-4.23464 z"
     id="path7283"
     inkscape:connector-curvature="0" /><path
     style="fill:#006bff;fill-opacity:0.39215686;fill-rule:nonzero;stroke:none;stroke-width:0.0015014;stroke-miterlimit:4;stroke-dasharray:none;stroke-opacity:1;paint-order:stroke fill markers"
     d="m 23.885629,29.437113 0.0013,-0.02782 h 2.172609 c 1.928559,0 2.172608,6.69e-4 2.172608,0.006 0,0.0053 -0.04008,0.006 -0.336666,0.006 -0.55777,8.3e-5 -1.90913,0.0075 -2.16807,0.01192 -0.236938,0.004 -0.298655,0.0074 -0.238442,0.01309 0.04512,0.0042 0.565716,0.01109 1.088649,0.01431 0.371704,0.0023 0.107946,0.0032 -1.102357,0.0037 l -1.590969,6.68e-4 z"
     id="path7285"
     inkscape:connector-curvature="0" /><path
     style="fill:#006bff;fill-opacity:0.39215686;fill-rule:nonzero;stroke:none;stroke-width:0.01201121;stroke-miterlimit:4;stroke-dasharray:none;stroke-opacity:1;paint-order:stroke fill markers"
     d="m 2.1293662,29.42773 c -2e-7,-6.012711 0.00366,-8.477193 0.00813,-5.476626 0.00447,3.000567 0.00447,7.920059 2e-7,10.932203 -0.00447,3.012145 -0.00813,0.557135 -0.00813,-5.455577 z"
     id="path7287"
     inkscape:connector-curvature="0" /><path
     style="fill:#006bff;fill-opacity:0.39215686;fill-rule:nonzero;stroke:none;stroke-width:0.01201121;stroke-miterlimit:4;stroke-dasharray:none;stroke-opacity:1;paint-order:stroke fill markers"
     d="m 2.0272823,29.610463 c 0.00697,-7.717241 0.019555,-10.764837 0.044783,-10.844809 0.025759,-0.08166 0.035952,2.771923 0.03834,10.733581 0.0029,9.656802 -0.00201,10.844809 -0.044782,10.844809 -0.042785,0 -0.046976,-1.173184 -0.038341,-10.733581 z"
     id="path7289"
     inkscape:connector-curvature="0" /><path
     style="fill:#006bff;fill-opacity:0.39215686;fill-rule:nonzero;stroke:none;stroke-width:0.01698642;stroke-miterlimit:4;stroke-dasharray:none;stroke-opacity:1;paint-order:stroke fill markers"
     d="m 5.6107358,15.72277 c 0.055617,-0.01071 0.1466273,-0.01071 0.2022446,0 0.055617,0.01071 0.010112,0.01948 -0.1011223,0.01948 -0.1112345,0 -0.1567395,-0.0088 -0.1011223,-0.01948 z"
     id="path7291"
     inkscape:connector-curvature="0" /><path
     style="fill:#006bff;fill-opacity:0.39215686;fill-rule:nonzero;stroke:none;stroke-width:0.00600561;stroke-miterlimit:4;stroke-dasharray:none;stroke-opacity:1;paint-order:stroke fill markers"
     d="m 2.2024346,18.256196 c 0.033626,-0.170827 0.2681413,-0.663001 0.4428514,-0.929405 0.6048404,-0.922283 1.5297295,-1.527142 2.6513392,-1.733922 0.1679708,-0.03097 0.261863,-0.03369 1.5769103,-0.04575 0.7690678,-0.0071 3.7597325,-0.01721 6.6459215,-0.02258 l 5.247617,-0.0098 v 0.04788 0.04788 l -1.370498,1.86e-4 c -2.057927,2.81e-4 -7.5185654,0.02896 -8.9896719,0.04722 -1.1081961,0.01375 -1.8002625,0.02819 -2.6297669,0.05488 -0.3792456,0.0122 -0.8806384,0.06531 -1.0659777,0.112914 -0.5178985,0.133025 -1.1841901,0.578968 -1.6718406,1.11895 -0.2969589,0.328827 -0.4731712,0.588044 -0.6485113,0.953991 -0.1824345,0.380754 -0.1992154,0.412603 -0.188373,0.357521 z"
     id="path7293"
     inkscape:connector-curvature="0" /><path
     style="fill:#006bff;fill-opacity:0.39215686;fill-rule:nonzero;stroke:none;stroke-width:0.00600561;stroke-miterlimit:4;stroke-dasharray:none;stroke-opacity:1;paint-order:stroke fill markers"
     d="m 2.0116031,22.864247 c 0.00211,-2.165062 0.0098,-3.80304 0.018106,-3.853284 0.01707,-0.103287 0.00834,6.18097 -0.00979,7.04714 -0.00659,0.314619 -0.010326,-1.122616 -0.00831,-3.193856 z"
     id="path7295"
     inkscape:connector-curvature="0" /><path
     style="fill:#006bff;fill-opacity:0.39215686;fill-rule:nonzero;stroke:none;stroke-width:0.00600561;stroke-miterlimit:4;stroke-dasharray:none;stroke-opacity:1;paint-order:stroke fill markers"
     d="m 2.1095939,24.171186 c -0.00521,-1.348054 -0.00396,-3.173199 0.00279,-4.055879 0.01046,-1.368762 0.012689,-1.008167 0.015151,2.451006 0.00159,2.230733 3.319e-4,4.055879 -0.00279,4.055879 -0.00312,0 -0.00994,-1.102953 -0.015151,-2.451006 z"
     id="path7297"
     inkscape:connector-curvature="0" /><path
     style="fill:#006bff;fill-opacity:0.39215686;fill-rule:nonzero;stroke:none;stroke-width:0.00600561;stroke-miterlimit:4;stroke-dasharray:none;stroke-opacity:1;paint-order:stroke fill markers"
     d="m 2.0969168,19.729978 c -9.485e-4,-0.294955 -0.00639,-0.636388 -0.012098,-0.758739 -0.00685,-0.146876 -0.00412,-0.252151 0.00804,-0.309852 0.014891,-0.07067 0.018726,0.07451 0.020043,0.758739 8.955e-4,0.465374 -0.00195,0.846134 -0.00632,0.846134 -0.00437,0 -0.00872,-0.241327 -0.00967,-0.536282 z"
     id="path7299"
     inkscape:connector-curvature="0" /><path
     style="fill:#006bff;fill-opacity:0.39215686;fill-rule:nonzero;stroke:none;stroke-width:0.0042466;stroke-miterlimit:4;stroke-dasharray:none;stroke-opacity:1;paint-order:stroke fill markers"
     d="m 18.77353,15.560267 -0.0039,-0.0496 h 1.416736 c 0.779204,0 2.350428,-0.0034 3.491608,-0.0075 l 2.074872,-0.0075 v 0.04542 0.04541 l -2.772435,0.0068 c -1.52484,0.0038 -3.094288,0.009 -3.487663,0.01167 l -0.715228,0.0048 z"
     id="path7301"
     inkscape:connector-curvature="0" /><path
     style="fill:#006bff;fill-opacity:0.39215686;fill-rule:nonzero;stroke:none;stroke-width:0.0021233;stroke-miterlimit:4;stroke-dasharray:none;stroke-opacity:1;paint-order:stroke fill markers"
     d="m 25.752419,15.54454 v -0.04403 l 0.228445,-0.0037 c 0.125646,-0.002 0.612297,-0.0037 1.081447,-0.0037 h 0.853001 v 0.04401 0.04401 l -0.619374,0.0037 c -0.340656,0.0021 -0.827307,0.0037 -1.081447,0.0037 l -0.462072,3e-6 z"
     id="path7303"
     inkscape:connector-curvature="0" /><path
     style="fill:#006bff;fill-opacity:0.39215686;fill-rule:nonzero;stroke:none;stroke-width:0.0042466;stroke-miterlimit:4;stroke-dasharray:none;stroke-opacity:1;paint-order:stroke fill markers"
     d="m 27.922087,15.535315 v -0.04494 h 1.977502 1.977502 v 0.03747 0.03747 l -1.01965,0.0075 c -0.560807,0.0041 -1.450683,0.0075 -1.977502,0.0075 l -0.957852,7e-6 z"
     id="path7305"
     inkscape:connector-curvature="0" /><path
     style="fill:#006bff;fill-opacity:0.39215686;fill-rule:nonzero;stroke:none;stroke-width:0.0015014;stroke-miterlimit:4;stroke-dasharray:none;stroke-opacity:1;paint-order:stroke fill markers"
     d="m 31.538029,15.569238 c 0.172603,-0.0014 0.319634,-0.0029 0.326734,-0.0032 l 0.01291,-5.76e-4 v -0.03774 -0.03774 l -1.248345,-6.78e-4 -1.248345,-6.78e-4 1.322829,-0.0028 c 0.727555,-0.0015 1.775539,-0.004 2.328853,-0.0054 l 1.006025,-0.0027 v 0.04519 0.04519 l -1.04575,0.0026 c -0.575162,0.0015 -1.208421,0.0023 -1.407243,0.0019 l -0.361493,-7.87e-4 z"
     id="path7307"
     inkscape:connector-curvature="0" /><path
     style="fill:#006bff;fill-opacity:0.39215686;fill-rule:nonzero;stroke:none;stroke-width:0.0042466;stroke-miterlimit:4;stroke-dasharray:none;stroke-opacity:1;paint-order:stroke fill markers"
     d="m 43.713884,18.116752 c -0.369667,-0.80474 -0.561572,-1.108687 -0.917399,-1.453015 -0.30993,-0.299914 -0.524999,-0.436262 -1.295755,-0.82147 -0.290446,-0.145159 -0.510387,-0.260967 -0.488758,-0.257352 0.07706,0.01288 0.345203,0.09868 0.499993,0.159976 0.183578,0.0727 0.467644,0.215874 0.633032,0.319061 0.664738,0.414736 1.211048,1.048631 1.524663,1.769096 0.05168,0.118718 0.184971,0.490523 0.184971,0.515953 0,0.0036 -0.007,0.0065 -0.01553,0.0065 -0.0093,0 -0.0596,-0.09592 -0.125213,-0.238761 z"
     id="path7309"
     inkscape:connector-curvature="0" /><path
     style="fill:#006bff;fill-opacity:0.39215686;fill-rule:nonzero;stroke:none;stroke-width:0.0042466;stroke-miterlimit:4;stroke-dasharray:none;stroke-opacity:1;paint-order:stroke fill markers"
     d="m 34.045772,15.525219 v -0.04236 l 3.070184,-0.0075 c 3.336004,-0.0082 3.292459,-0.0089 3.660064,0.05815 0.02784,0.0051 -0.848144,0.01253 -1.949412,0.01659 -1.099986,0.0041 -2.625668,0.0097 -3.390405,0.01245 l -1.390431,0.0051 z"
     id="path7311"
     inkscape:connector-curvature="0" /><path
     style="fill:#006bff;fill-opacity:0.39215686;fill-rule:nonzero;stroke:none;stroke-width:0.00849321;stroke-miterlimit:4;stroke-dasharray:none;stroke-opacity:1;paint-order:stroke fill markers"
     d="m 43.888009,19.022648 c 0,-0.261607 0.0044,-0.471292 0.0097,-0.465966 0.01821,0.01821 0.07746,0.503125 0.08827,0.722517 l 0.0108,0.219098 h -0.05438 -0.05438 z"
     id="path7313"
     inkscape:connector-curvature="0" /><path
     style="fill:#006bff;fill-opacity:0.39215686;fill-rule:nonzero;stroke:none;stroke-width:0.0030028;stroke-miterlimit:4;stroke-dasharray:none;stroke-opacity:1;paint-order:stroke fill markers"
     d="m 34.016402,44.461969 v -0.02857 l 0.232389,-5.3e-5 c 0.127814,-3e-5 1.14228,-0.0034 2.25437,-0.0075 4.028216,-0.01493 4.183345,-0.01523 4.143273,-0.008 -0.101294,0.0183 -0.273124,0.0323 -0.480667,0.03917 -0.124537,0.0041 -1.3991,0.01122 -2.832362,0.01577 -1.433263,0.0046 -2.765923,0.01042 -2.961468,0.01304 l -0.355535,0.0048 z"
     id="path7315"
     inkscape:connector-curvature="0" /><path
     style="fill:#006bff;fill-opacity:0.39215686;fill-rule:nonzero;stroke:none;stroke-width:0.0015014;stroke-miterlimit:4;stroke-dasharray:none;stroke-opacity:1;paint-order:stroke fill markers"
     d="m 24.227743,44.513383 c 0,-0.01534 4.97e-4,-0.01596 0.01291,-0.01601 0.0071,-3e-5 0.138043,-0.0018 0.290982,-0.0039 0.15294,-0.0021 0.531912,-0.0065 0.842161,-0.0097 0.310249,-0.0032 0.661514,-0.0069 0.780588,-0.0081 0.549571,-0.0057 2.176757,-0.01751 3.35772,-0.02433 l 0.471729,-0.0027 v 0.02778 0.02778 l -0.584944,0.0027 c -0.32172,0.0015 -1.459978,0.0061 -2.529463,0.01033 -1.069484,0.0042 -2.10138,0.0087 -2.293101,0.0099 l -0.348583,0.0023 z"
     id="path7317"
     inkscape:connector-curvature="0" /><path
     style="fill:#006bff;fill-opacity:0.39215686;fill-rule:nonzero;stroke:none;stroke-width:0.0042466;stroke-miterlimit:4;stroke-dasharray:none;stroke-opacity:1;paint-order:stroke fill markers"
     d="m 29.987476,44.481257 c 0,-0.02232 0.0076,-0.02331 0.227525,-0.02966 0.125139,-0.0036 1.030184,-0.009 2.01121,-0.01191 l 1.783684,-0.0053 v 0.02753 0.02753 h -0.829589 c -0.456274,0 -1.361318,0.0034 -2.011209,0.0075 l -1.181621,0.0075 z"
     id="path7319"
     inkscape:connector-curvature="0" /><path
     style="fill:#006bff;fill-opacity:0.39215686;fill-rule:nonzero;stroke:none;stroke-width:0.00147638;stroke-miterlimit:4;stroke-dasharray:none;stroke-opacity:1;paint-order:stroke fill markers"
     d="m 22.586213,44.613605 c 0.02766,-0.02502 0.07574,-0.06072 0.09477,-0.07039 0.02178,-0.01106 0.07265,-0.01496 0.280226,-0.02146 0.272716,-0.0085 1.262069,-0.02658 1.265085,-0.02307 7.61e-4,8.87e-4 5.62e-4,0.0082 -4.42e-4,0.01626 l -0.0018,0.01465 -0.356018,3.84e-4 c -0.577848,6.24e-4 -0.96614,0.0056 -1.010315,0.01287 -0.08791,0.01453 -0.154581,0.03267 -0.228513,0.06218 -0.02793,0.01115 -0.05254,0.02081 -0.05469,0.02148 -0.0022,6.67e-4 0.0031,-0.0051 0.01172,-0.01291 z"
     id="path7323"
     inkscape:connector-curvature="0" /><path
     style="fill:#006bff;fill-opacity:0.39215686;fill-rule:nonzero;stroke:none;stroke-width:0.00417583;stroke-miterlimit:4;stroke-dasharray:none;stroke-opacity:1;paint-order:stroke fill markers"
     d="m 13.822932,44.958783 c -0.08655,-0.131129 -0.258101,-0.27353 -0.41189,-0.341906 -0.03475,-0.01545 -0.107921,-0.03972 -0.162611,-0.05393 l -0.09944,-0.02585 0.18801,-5.43e-4 0.188009,-5.43e-4 0.141454,0.176234 c 0.128447,0.16003 0.216573,0.29217 0.203542,0.3052 -0.0028,0.0028 -0.02395,-0.02363 -0.04708,-0.05866 z"
     id="path7325"
     inkscape:connector-curvature="0" /><path
     style="fill:#006bff;fill-opacity:0.39215686;fill-rule:nonzero;stroke:none;stroke-width:0.00417583;stroke-miterlimit:4;stroke-dasharray:none;stroke-opacity:1;paint-order:stroke fill markers"
     d="m 6.1939359,44.468749 v -0.05621 l 0.1298204,0.0067 c 0.2107468,0.01088 1.0720146,0.02669 3.0742572,0.05645 1.0360775,0.0154 2.1273975,0.03198 2.4251555,0.03686 0.362175,0.0059 -0.479897,0.0095 -2.5439273,0.01064 l -3.0853058,0.0018 z"
     id="path7327"
     inkscape:connector-curvature="0" /><path
     style="fill:#006bff;fill-opacity:0.39215686;fill-rule:nonzero;stroke:none;stroke-width:0.00208791;stroke-miterlimit:4;stroke-dasharray:none;stroke-opacity:1;paint-order:stroke fill markers"
     d=""
     id="path7329"
     inkscape:connector-curvature="0" /><path
     style="fill:#006bff;fill-opacity:0.39215686;fill-rule:nonzero;stroke:none;stroke-width:0.00208791;stroke-miterlimit:4;stroke-dasharray:none;stroke-opacity:1;paint-order:stroke fill markers"
     d="m 18.616227,48.791248 c 0.861296,-0.947239 1.397127,-1.528884 2.034626,-2.208587 0.402224,-0.428852 0.776846,-0.821618 0.780335,-0.81813 0.0014,0.0014 -0.721335,0.798789 -1.60601,1.772043 l -1.6085,1.769553 -0.0358,0.0016 -0.0358,0.0016 z"
     id="path7331"
     inkscape:connector-curvature="0" /><path
     style="fill:#006bff;fill-opacity:0.39215686;fill-rule:nonzero;stroke:none;stroke-width:0.00208791;stroke-miterlimit:4;stroke-dasharray:none;stroke-opacity:1;paint-order:stroke fill markers"
     d="m 16.982796,50.589037 c 0.01182,-0.01291 0.278361,-0.306252 0.592304,-0.651864 l 0.570804,-0.628386 h 0.03361 0.0336 l -0.01118,0.01243 c -0.0061,0.0068 -0.272603,0.300176 -0.592122,0.651864 l -0.580943,0.639435 h -0.03379 -0.03379 z"
     id="path7333"
     inkscape:connector-curvature="0" /><path
     style="fill:#006bff;fill-opacity:0.39215686;fill-rule:nonzero;stroke:none;stroke-width:0.00208791;stroke-miterlimit:4;stroke-dasharray:none;stroke-opacity:1;paint-order:stroke fill markers"
     d="m 16.015667,51.651919 c 0.001,-0.0024 0.214153,-0.237349 0.473644,-0.522044 l 0.471802,-0.517626 h 0.03269 0.03269 l -0.01007,0.01269 c -0.0055,0.007 -0.218496,0.241898 -0.473241,0.522044 l -0.463173,0.509355 h -0.03309 c -0.0182,0 -0.03226,-0.002 -0.03125,-0.0044 z"
     id="path7335"
     inkscape:connector-curvature="0" /><path
     style="fill:#006bff;fill-opacity:0.39215686;fill-rule:nonzero;stroke:none;stroke-width:0.00295276;stroke-miterlimit:4;stroke-dasharray:none;stroke-opacity:1;paint-order:stroke fill markers"
     d="m 14.363406,53.448667 c 0.01676,-0.01927 0.08496,-0.09242 0.151562,-0.162555 0.116124,-0.122283 0.53157,-0.57436 1.186889,-1.291537 0.168829,-0.184766 0.312904,-0.336967 0.320168,-0.338226 0.0073,-0.0013 0.02089,5.53e-4 0.03028,0.004 0.01537,0.0057 -0.06513,0.09675 -0.806565,0.912444 l -0.823637,0.90613 -0.04458,0.0024 -0.04458,0.0024 z"
     id="path7337"
     inkscape:connector-curvature="0" /><path
     style="fill:#006bff;fill-opacity:0.39215686;fill-rule:nonzero;stroke:none;stroke-width:0.00208791;stroke-miterlimit:4;stroke-dasharray:none;stroke-opacity:1;paint-order:stroke fill markers"
     d="m 14.000985,51.779658 c 0,-1.437106 0.0019,-2.164008 0.0055,-2.164008 0.0037,0 0.006,0.705238 0.0069,2.096414 l 0.0014,2.096414 0.156553,-0.162919 0.156553,-0.162919 h 0.0437 c 0.02404,0 0.0437,0.0013 0.0437,0.003 0,0.0024 -0.35685,0.397556 -0.401322,0.444377 l -0.013,0.01369 z"
     id="path7339"
     inkscape:connector-curvature="0" /><path
     style="fill:#006bff;fill-opacity:0.39215686;fill-rule:nonzero;stroke:none;stroke-width:0.00417583;stroke-miterlimit:4;stroke-dasharray:none;stroke-opacity:1;paint-order:stroke fill markers"
     d="M 5.5528285,44.512414 C 5.3973055,44.497639 5.1252566,44.449387 4.962011,44.407622 3.6814586,44.080009 2.6441725,43.121544 2.215385,41.869706 2.1884707,41.79113 2.166633,41.721239 2.1668567,41.714392 c 2.238e-4,-0.0068 0.076646,0.141679 0.1698273,0.330056 0.1699612,0.343598 0.2929191,0.559722 0.4180042,0.734728 0.3409136,0.476972 0.7692784,0.872814 1.2732372,1.176571 0.1298076,0.07824 0.4372603,0.229056 0.5611109,0.275243 0.1810607,0.06752 0.3584456,0.10272 0.6710058,0.133141 0.1642883,0.01599 0.7596268,0.05023 0.8733593,0.05023 h 0.054718 v 0.05524 0.05524 l -0.2679272,-0.0015 c -0.14736,-8.21e-4 -0.3126738,-0.0057 -0.3673641,-0.01094 z"
     id="path7341"
     inkscape:connector-curvature="0" /><path
     style="fill:#006bff;fill-opacity:0.39215686;fill-rule:nonzero;stroke:none;stroke-width:0.00208791;stroke-miterlimit:4;stroke-dasharray:none;stroke-opacity:1;paint-order:stroke fill markers"
     d="m 2.1072853,41.507967 c -0.034169,-0.150255 -0.058794,-0.288257 -0.075658,-0.423988 -0.024066,-0.193702 -0.023515,-0.167304 -0.025749,-1.233294 -0.0021,-1.000279 -0.00195,-1.017847 0.00846,-1.017847 0.010315,0 0.010687,0.011 0.014236,0.421226 0.00741,0.856499 0.018069,1.129295 0.042423,1.085776 0.015827,-0.02828 0.025515,-0.35221 0.03074,-1.027771 0.00356,-0.45986 0.00412,-0.479231 0.013845,-0.479231 0.00981,0 0.010138,0.04468 0.010138,1.37002 0,0.75351 -8.265e-4,1.370019 -0.00184,1.370019 -0.00101,0 -0.00848,-0.02921 -0.016598,-0.06491 z"
     id="path7343"
     inkscape:connector-curvature="0" /><path
     style="fill:#006bff;fill-opacity:0.39215686;fill-rule:nonzero;stroke:none;stroke-width:0.00417583;stroke-miterlimit:4;stroke-dasharray:none;stroke-opacity:1;paint-order:stroke fill markers"
     d="m 2.0572199,19.083816 c 0,-0.06988 0.00179,-0.09847 0.00399,-0.06353 0.00219,0.03494 0.00219,0.09212 0,0.127058 -0.00219,0.03494 -0.00399,0.0064 -0.00399,-0.06353 z"
     id="path7345"
     inkscape:connector-curvature="0" /><path
     style="fill:#006bff;fill-opacity:0.39215686;fill-rule:nonzero;stroke:none;stroke-width:0.00417583;stroke-miterlimit:4;stroke-dasharray:none;stroke-opacity:1;paint-order:stroke fill markers"
     d="m 2.0566672,19.08934 c -4.9e-5,-0.04254 0.00191,-0.06129 0.00435,-0.04168 0.00244,0.01961 0.00248,0.05442 8.91e-5,0.07734 -0.00239,0.02292 -0.00439,0.0069 -0.00444,-0.03566 z"
     id="path7347"
     inkscape:connector-curvature="0" /><path
     style="fill:#006bff;fill-opacity:0.39215686;fill-rule:nonzero;stroke:none;stroke-width:0.00147638;stroke-miterlimit:4;stroke-dasharray:none;stroke-opacity:1;paint-order:stroke fill markers"
     d="m 2.0397729,20.114071 c -0.00179,-0.494141 -0.0046,-0.949414 -0.00623,-1.011719 -0.00308,-0.117326 -0.0027,-0.12363 0.013843,-0.234375 0.00872,-0.05835 0.041331,-0.234322 0.046875,-0.25293 0.00143,-0.0048 0.00606,-0.0068 0.015445,-0.0068 h 0.013409 l -5.297e-4,0.379882 c -2.912e-4,0.208936 -0.00161,0.400977 -0.00293,0.426758 -0.00287,0.05609 -0.00818,-0.239449 -0.00841,-0.468415 -2.2e-4,-0.216864 -0.00668,-0.330222 -0.016897,-0.296626 -0.00407,0.01337 -0.00981,0.05771 -0.012819,0.09903 -0.00203,0.02781 -0.00368,0.03661 -0.00514,0.02734 -0.00841,-0.05343 -0.014921,0.08867 -0.019516,0.425782 -0.00355,0.260109 -0.01165,1.264884 -0.013076,1.621093 -4.171e-4,0.1042 -0.00223,-0.214843 -0.00402,-0.708984 z"
     id="path7349"
     inkscape:connector-curvature="0" /><path
     style="fill:#006bff;fill-opacity:0.39215686;fill-rule:nonzero;stroke:none;stroke-width:0.00147638;stroke-miterlimit:4;stroke-dasharray:none;stroke-opacity:1;paint-order:stroke fill markers"
     d="m 2.0033144,20.671688 c 0.001,-0.932584 0.0029,-1.431681 0.00555,-1.459961 0.00222,-0.02363 0.00624,-0.06981 0.00894,-0.102608 0.0027,-0.0328 0.0056,-0.05895 0.00644,-0.0581 8.448e-4,8.45e-4 -2.98e-4,0.177097 -0.00254,0.391671 -0.00224,0.214573 -0.005,0.86738 -0.00613,1.450681 -0.00204,1.052469 -0.00326,1.195312 -0.010186,1.195312 -0.00219,0 -0.003,-0.554647 -0.00208,-1.416992 z"
     id="path7351"
     inkscape:connector-curvature="0" /></svg>