<?xml version="1.0" encoding="UTF-8" standalone="no"?>
<svg
   xmlns:dc="http://purl.org/dc/elements/1.1/"
   xmlns:cc="http://creativecommons.org/ns#"
   xmlns:rdf="http://www.w3.org/1999/02/22-rdf-syntax-ns#"
   xmlns:svg="http://www.w3.org/2000/svg"
   xmlns="http://www.w3.org/2000/svg"
   xmlns:sodipodi="http://sodipodi.sourceforge.net/DTD/sodipodi-0.dtd"
   xmlns:inkscape="http://www.inkscape.org/namespaces/inkscape"
   version="1.1"
   viewBox="0 0 512 512"
   enable-background="new 0 0 512 512"
   id="svg4676"
   sodipodi:docname="002-light-bulb-colour.svg"
   inkscape:export-filename="C:\Files\Documents\nikola\Mallcock1.github.io\files\icon-bulb.png"
   inkscape:export-xdpi="96"
   inkscape:export-ydpi="96"
   inkscape:version="0.92.1 r15371">
  <metadata
     id="metadata4682">
    <rdf:RDF>
      <cc:Work
         rdf:about="">
        <dc:format>image/svg+xml</dc:format>
        <dc:type
           rdf:resource="http://purl.org/dc/dcmitype/StillImage" />
        <dc:title></dc:title>
      </cc:Work>
    </rdf:RDF>
  </metadata>
  <defs
     id="defs4680" />
  <sodipodi:namedview
     pagecolor="#ffffff"
     bordercolor="#666666"
     borderopacity="1"
     objecttolerance="10"
     gridtolerance="10"
     guidetolerance="10"
     inkscape:pageopacity="0"
     inkscape:pageshadow="2"
     inkscape:window-width="1366"
     inkscape:window-height="706"
     id="namedview4678"
     showgrid="false"
     inkscape:zoom="0.921875"
     inkscape:cx="320.70717"
     inkscape:cy="235.00193"
     inkscape:window-x="-8"
     inkscape:window-y="-8"
     inkscape:window-maximized="1"
     inkscape:current-layer="svg4676" />
  <g
     id="g4674">
    <g
       id="g4672">
      <path
         d="m256,92.3c-74.2,0-127.8,55.3-136.3,114.7-5.3,39.6 7.5,78.2 34.1,107.4 23.4,25 36.2,58.4 36.2,92.8l-.1,54.2c0,21.9 18.1,39.6 40.5,39.6h52.2c22.4,0 40.5-17.7 40.5-39.6l.1-54.2c0-35.4 11.7-67.8 34.1-90.7 24.5-25 37.3-57.3 37.3-90.7-0.1-74.1-63-133.5-138.6-133.5zm46.8,369.1c0,10.4-8.5,18.8-19.2,18.8h-52.2c-10.7,0-19.2-8.3-19.2-18.8v-24h90.5v24zm39.6-159.5c-26.6,27.1-40.5,64.6-40.5,105.3v9.4h-90.5v-9.4c0-38.6-16-77.1-42.6-106.3-23.4-25-33-57.3-28.8-90.7 7.5-50 54-97 116.1-97 65,0 117.2,51.1 117.2,112.6 0,28.1-10.7,55.2-30.9,76.1z"
         id="path4660" />
      <rect
         width="21.3"
         x="245.3"
         y="11"
         height="50"
         id="rect4662" />
      <polygon
         points="385.1,107.4 400,122.3 436.5,87.2 421.5,72.3   "
         id="polygon4664" />
      <rect
         width="52.2"
         x="448.8"
         y="236.2"
         height="20.9"
         id="rect4666" />
      <rect
         width="52.2"
         x="11"
         y="236.2"
         height="20.9"
         id="rect4668" />
      <polygon
         points="90.1,72.2 75.1,87.1 111.6,122.2 126.5,107.3   "
         id="polygon4670" />
    </g>
  </g>
  <path
     style="fill:none;fill-opacity:1;fill-rule:nonzero;stroke:none;stroke-width:0.8199653;stroke-miterlimit:4;stroke-dasharray:none;stroke-opacity:1;paint-order:stroke fill markers"
     d="m 211.99181,398.35451 c -0.85912,-9.1681 -2.93211,-22.1037 -4.60664,-28.74577 -4.8969,-19.42369 -21.09746,-49.69823 -36.39512,-68.01278 -16.95382,-20.29732 -24.09763,-34.23102 -28.63117,-55.84385 -5.8831,-28.04663 0.45188,-56.10195 18.45733,-81.74078 22.16269,-31.55852 56.5733,-49.23067 95.61769,-49.10607 45.93972,0.1466 84.1276,23.84717 104.42524,64.8095 8.33039,16.81143 9.1243,19.93293 10.07126,39.59819 1.64968,34.25885 -5.59198,53.48014 -32.04903,85.06671 -8.49529,10.14237 -18.31223,24.29831 -21.81542,31.45763 -7.54162,15.41252 -15.07273,43.63414 -15.07273,56.48262 0,5.02947 -0.61017,12.19534 -1.35593,15.92416 l -1.35593,6.77966 H 256.4176 213.55384 Z"
     id="path5229"
     inkscape:connector-curvature="0" />
  <path
     style="fill:#ffff00;fill-opacity:0.39195979;fill-rule:nonzero;stroke:none;stroke-width:0.8199653;stroke-miterlimit:4;stroke-dasharray:none;stroke-opacity:1;paint-order:stroke fill markers"
     d="m 212.14735,399.07797 c -3.23449,-36.37198 -15.93464,-66.87827 -39.62525,-95.18154 -17.3422,-20.7188 -27.96383,-42.15605 -31.11236,-62.79294 -10.43154,-68.37291 51.50307,-131.70621 123.30324,-126.08783 61.17321,4.78681 106.70397,52.09953 106.70397,110.88012 0,30.34998 -8.4823,50.77266 -32.50722,78.26693 -21.42671,24.52088 -36.79852,61.25191 -36.88444,88.1356 -0.0176,5.51864 -0.64224,13.08474 -1.388,16.81355 l -1.35593,6.77967 h -42.81941 -42.8194 z"
     id="path5243"
     inkscape:connector-curvature="0" />
  <path
     style="fill:#ffff00;fill-opacity:0.39195981;fill-rule:nonzero;stroke:none;stroke-width:0.07247538;stroke-miterlimit:4;stroke-dasharray:none;stroke-opacity:1;paint-order:stroke fill markers"
     d="m 139.27644,223.04142 c 0.0645,-4.06794 0.22376,-7.66249 0.41853,-9.44407 2.22542,-20.35537 11.17195,-40.54892 25.69924,-58.00673 3.16978,-3.80921 10.66036,-11.30165 14.45544,-14.45904 19.7681,-16.44645 42.51693,-25.6877 67.81077,-27.54674 3.93252,-0.28903 12.89362,-0.28686 16.97056,0.004 20.68586,1.47638 40.21704,8.05835 57.32407,19.31809 25.568,16.82871 43.32119,42.7136 49.09444,71.58181 1.42598,7.13042 1.91305,11.69927 2.05953,19.31959 l 0.11151,5.80067 h -0.89023 -0.89024 l -0.003,-3.78721 c -0.005,-6.2692 -0.50917,-12.26787 -1.55155,-18.45669 -6.35631,-37.73843 -32.14836,-69.19814 -68.82067,-83.9435 -19.44172,-7.8172 -41.13618,-10.50736 -61.36249,-7.60907 -9.06367,1.29877 -17.56752,3.56151 -26.07906,6.93924 -37.9954,15.07813 -65.91947,48.82099 -72.09053,87.11267 -0.88276,5.47758 -1.45562,13.03083 -1.32439,17.46251 l 0.0676,2.28206 h -0.55185 l -0.55185,-1e-5 z"
     id="path5245"
     inkscape:connector-curvature="0" />
  <path
     style="fill:#ffff00;fill-opacity:0.39195981;fill-rule:nonzero;stroke:none;stroke-width:0.10249566;stroke-miterlimit:4;stroke-dasharray:none;stroke-opacity:1;paint-order:stroke fill markers"
     d="m 211.24701,399.19073 c 0,-6.02047 -2.11917,-19.60155 -4.49361,-28.79816 -6.67204,-25.84195 -19.34425,-48.95852 -38.62449,-70.45855 -5.31205,-5.92364 -8.8262,-10.54587 -12.78289,-16.81356 -2.18549,-3.46198 -6.83446,-12.67201 -8.35014,-16.54238 -4.3,-10.98028 -7.00993,-23.0629 -7.5268,-33.55932 -0.14992,-3.04451 -0.11899,-3.45763 0.2589,-3.45763 0.31999,0 0.46305,0.36214 0.56244,1.42373 0.89478,9.55787 1.75896,15.04224 3.19416,20.27119 4.75752,17.33334 13.77069,33.90518 27.87382,51.24949 7.10407,8.73673 10.30579,13.0304 14.46222,19.39458 14.38641,22.02793 22.97415,46.33159 25.82463,73.08474 0.23043,2.16272 0.4806,4.38983 0.55594,4.94916 0.119,0.88354 0.0654,1.01695 -0.40861,1.01695 -0.49061,0 -0.54557,-0.17735 -0.54557,-1.76024 z"
     id="path5247"
     inkscape:connector-curvature="0" />
  <path
     style="fill:#ffff00;fill-opacity:0.39195981;fill-rule:nonzero;stroke:none;stroke-width:0.10249566;stroke-miterlimit:4;stroke-dasharray:none;stroke-opacity:1;paint-order:stroke fill markers"
     d="m 328.94192,317.25732 c 0,-0.52116 6.39294,-8.86769 9.9452,-12.98432 16.52622,-19.15181 24.9803,-33.57659 29.24442,-49.89831 1.61128,-6.16749 2.66645,-12.85159 2.97531,-18.84745 0.0883,-1.71526 0.22583,-3.75933 0.30551,-4.54238 0.13932,-1.3693 0.17599,-1.42373 0.95926,-1.42373 h 0.81441 l -0.17693,2.50848 c -1.13821,16.13744 -4.98447,30.11134 -12.03651,43.73001 -4.96631,9.59079 -10.62452,17.45343 -18.73394,26.0327 -4.29034,4.53892 -7.88319,8.71611 -10.78783,12.54237 -2.22221,2.9273 -2.5089,3.25669 -2.5089,2.88263 z"
     id="path5249"
     inkscape:connector-curvature="0" />
  <path
     style="fill:#ffff00;fill-opacity:0.39195981;fill-rule:nonzero;stroke:none;stroke-width:0.05124783;stroke-miterlimit:4;stroke-dasharray:none;stroke-opacity:1;paint-order:stroke fill markers"
     d="m 211.44072,409.74773 c -4.4e-4,-3.71017 -0.0406,-7.25644 -0.0891,-7.88061 -0.0872,-1.12011 -0.0847,-1.13287 0.19438,-0.98353 0.15549,0.0832 0.37494,0.11591 0.48765,0.0727 0.27356,-0.10498 0.25508,-0.25311 0.89802,7.19826 0.30243,3.50508 0.58605,6.69322 0.63026,7.08474 l 0.0804,0.71187 h 42.81713 42.81713 l 0.0734,-0.30509 c 0.0404,-0.1678 0.41117,-2.01356 0.82403,-4.10169 1.20898,-6.11478 1.63165,-10.33006 1.84907,-18.44068 0.17595,-6.56374 0.49268,-10.10166 1.36565,-15.25424 2.34447,-13.83798 7.8472,-29.51349 15.39815,-43.86441 1.72059,-3.27005 1.63872,-3.12898 1.75079,-3.01691 0.0435,0.0435 -0.5316,1.22827 -1.27805,2.63277 -8.10419,15.2487 -13.67489,33.20855 -16.01695,51.63838 -1.0284,8.09251 -1.23871,11.62832 -1.32067,22.20339 l -0.0701,9.05085 h -45.20513 -45.20513 z"
     id="path5251"
     inkscape:connector-curvature="0" />
</svg>
