<?xml version="1.0" encoding="UTF-8" standalone="no"?>
<svg
   xmlns:dc="http://purl.org/dc/elements/1.1/"
   xmlns:cc="http://creativecommons.org/ns#"
   xmlns:rdf="http://www.w3.org/1999/02/22-rdf-syntax-ns#"
   xmlns:svg="http://www.w3.org/2000/svg"
   xmlns="http://www.w3.org/2000/svg"
   xmlns:sodipodi="http://sodipodi.sourceforge.net/DTD/sodipodi-0.dtd"
   xmlns:inkscape="http://www.inkscape.org/namespaces/inkscape"
   version="1.1"
   viewBox="0 0 470 470"
   enable-background="new 0 0 470 470"
   id="svg5855"
   sodipodi:docname="003-nature-colour.svg"
   inkscape:export-filename="C:\Files\Documents\nikola\Mallcock1.github.io\files\icon-solar.png"
   inkscape:export-xdpi="96"
   inkscape:export-ydpi="96"
   inkscape:version="0.92.1 r15371">
  <metadata
     id="metadata5861">
    <rdf:RDF>
      <cc:Work
         rdf:about="">
        <dc:format>image/svg+xml</dc:format>
        <dc:type
           rdf:resource="http://purl.org/dc/dcmitype/StillImage" />
        <dc:title></dc:title>
      </cc:Work>
    </rdf:RDF>
  </metadata>
  <defs
     id="defs5859" />
  <sodipodi:namedview
     pagecolor="#ffffff"
     bordercolor="#666666"
     borderopacity="1"
     objecttolerance="10"
     gridtolerance="10"
     guidetolerance="10"
     inkscape:pageopacity="0"
     inkscape:pageshadow="2"
     inkscape:window-width="1366"
     inkscape:window-height="706"
     id="namedview5857"
     showgrid="false"
     inkscape:zoom="0.70710678"
     inkscape:cx="482.24313"
     inkscape:cy="161.0954"
     inkscape:window-x="-8"
     inkscape:window-y="-8"
     inkscape:window-maximized="1"
     inkscape:current-layer="svg5855" />
  <g
     id="g5853">
    <path
       d="m168.757,205.591l-7.525-2.445c-3.935-1.28-8.171,0.875-9.45,4.815-1.28,3.939 0.876,8.17 4.815,9.45l7.507,2.439c-1.044,4.889-1.604,9.954-1.604,15.149s0.561,10.261 1.604,15.149l-7.507,2.439c-3.939,1.28-6.096,5.511-4.815,9.45 1.029,3.169 3.97,5.185 7.131,5.185 0.769,0 1.55-0.119 2.319-0.369l7.525-2.445c4.179,9.375 10.278,17.71 17.814,24.488l-4.661,6.416c-2.435,3.351-1.692,8.042 1.659,10.476 1.331,0.967 2.873,1.433 4.402,1.433 2.318,0 4.606-1.072 6.073-3.092l4.657-6.411c8.637,5.018 18.389,8.319 28.798,9.394v7.888c0,4.142 3.357,7.5 7.5,7.5s7.5-3.358 7.5-7.5v-7.887c10.409-1.075 20.161-4.376 28.798-9.394l4.657,6.411c1.467,2.02 3.754,3.092 6.073,3.092 1.528,0 3.071-0.466 4.402-1.433 3.352-2.435 4.094-7.125 1.659-10.476l-4.661-6.416c7.536-6.778 13.635-15.113 17.814-24.488l7.524,2.445c0.77,0.25 1.551,0.369 2.319,0.369 3.161,0 6.102-2.015 7.131-5.184 1.28-3.939-0.876-8.171-4.815-9.451l-7.506-2.439c1.044-4.889 1.604-9.954 1.604-15.15s-0.561-10.261-1.604-15.15l7.506-2.439c3.939-1.28 6.096-5.511 4.815-9.451-1.279-3.94-5.514-6.095-9.45-4.815l-7.524,2.445c-4.179-9.375-10.278-17.71-17.814-24.488l4.661-6.416c2.435-3.351 1.692-8.042-1.659-10.476-3.348-2.434-8.041-1.693-10.476,1.66l-4.657,6.411c-8.637-5.018-18.389-8.319-28.798-9.394v-7.886c0-4.142-3.357-7.5-7.5-7.5s-7.5,3.358-7.5,7.5v7.887c-10.409,1.075-20.161,4.376-28.798,9.394l-4.657-6.411c-2.434-3.351-7.124-4.093-10.476-1.66-3.352,2.435-4.094,7.125-1.659,10.476l4.661,6.416c-7.534,6.779-13.633,15.114-17.812,24.489zm66.243-28.091c31.706,0 57.5,25.794 57.5,57.5s-25.794,57.5-57.5,57.5-57.5-25.794-57.5-57.5 25.794-57.5 57.5-57.5z"
       id="path5843" />
    <path
       d="M401.17,68.83C356.784,24.444,297.771,0,235,0S113.216,24.444,68.83,68.83S0,172.229,0,235s24.444,121.784,68.83,166.17   S172.229,470,235,470c40.195,0,79.866-10.326,114.725-29.86c3.614-2.025,4.901-6.596,2.877-10.209s-6.595-4.902-10.21-2.876   C309.769,445.336,272.633,455,235,455c-121.309,0-220-98.691-220-220S113.691,15,235,15s220,98.691,220,220   c0,37.63-9.669,74.769-27.961,107.403c-2.025,3.613-0.738,8.184,2.875,10.209c3.611,2.023,8.184,0.739,10.209-2.875   C459.669,314.868,470,275.192,470,235C470,172.229,445.556,113.216,401.17,68.83z"
       id="path5845" />
    <path
       d="m395.867,355.867c-22.056,0-40,17.944-40,40s17.944,40 40,40 40-17.944 40-40-17.944-40-40-40zm0,65c-13.785,0-25-11.215-25-25s11.215-25 25-25 25,11.215 25,25-11.215,25-25,25z"
       id="path5847" />
    <path
       d="m120.979,349.021c31.437,31.436 72.729,47.154 114.021,47.154s82.585-15.718 114.021-47.154c62.871-62.872 62.871-165.17 0-228.042-45.445-45.445-113.45-59.574-173.251-36-0.956,0.377-1.827,0.949-2.555,1.676-2.929,2.929-2.928,7.677 0.001,10.605 2.221,2.22 5.486,2.757 8.215,1.61 54.205-21.297 115.805-8.464 156.982,32.714 57.023,57.023 57.023,149.806 0,206.829-28.515,28.515-65.958,42.771-103.414,42.767-37.447-0.003-74.906-14.259-103.414-42.767-41.217-41.217-54.03-102.898-32.645-157.141 1.52-3.854-0.373-8.209-4.227-9.729-3.855-1.519-8.21,0.374-9.729,4.227-23.575,59.804-9.447,127.809 35.995,173.251z"
       id="path5849" />
    <path
       d="m126.282,86.282c-10.685,0-20.729,4.161-28.283,11.716-7.556,7.555-11.717,17.6-11.717,28.284s4.161,20.729 11.716,28.284c7.555,7.555 17.6,11.716 28.284,11.716s20.729-4.161 28.285-11.716c15.595-15.596 15.595-40.972-0.001-56.568-7.554-7.555-17.599-11.716-28.284-11.716zm17.678,57.678c-4.722,4.722-11,7.323-17.678,7.323s-12.955-2.601-17.678-7.323c-4.722-4.722-7.322-11-7.322-17.678s2.601-12.956 7.323-17.678c4.722-4.722 10.999-7.322 17.677-7.322s12.956,2.601 17.678,7.322c9.747,9.748 9.747,25.608 0,35.356z"
       id="path5851" />
  </g>
  <path
     style="fill:#ff0000;fill-opacity:0.39215687;fill-rule:nonzero;stroke:none;stroke-width:0.75270253;stroke-miterlimit:4;stroke-dasharray:none;stroke-opacity:1;paint-order:stroke fill markers"
     d="m 379.58475,412.24576 c -5.72295,-5.72294 -6.77119,-8.17867 -6.77119,-15.8629 0,-17.81901 17.13851,-29.50217 32.54992,-22.18897 23.51942,11.16069 15.92292,44.82306 -10.11511,44.82306 -7.4576,0 -9.985,-1.09256 -15.66362,-6.77119 z"
     id="path6408"
     inkscape:connector-curvature="0" />
  <path
     style="fill:#006bff;fill-opacity:0.39215687;fill-rule:nonzero;stroke:none;stroke-width:0.75270253;stroke-miterlimit:4;stroke-dasharray:none;stroke-opacity:1;paint-order:stroke fill markers"
     d="m 115.96656,147.61324 c -6.55953,-3.31916 -14.00046,-14.66649 -14.00046,-21.35053 0,-6.68404 7.44093,-18.03136 14.00046,-21.35052 15.5241,-7.85529 33.79615,3.68798 33.79615,21.35052 0,17.66255 -18.27205,29.20581 -33.79615,21.35053 z"
     id="path6412"
     inkscape:connector-curvature="0" />
  <path
     style="fill:#006bff;fill-opacity:0.39215686;fill-rule:nonzero;stroke:none;stroke-width:0.04704391;stroke-miterlimit:4;stroke-dasharray:none;stroke-opacity:1;paint-order:stroke fill markers"
     d="m 123.7101,151.098 c -0.17115,-0.0251 -0.73127,-0.10533 -1.24471,-0.17823 -7.79356,-1.10654 -14.966,-6.37351 -18.54826,-13.62064 -4.14652,-8.38864 -3.21479,-18.41311 2.41115,-25.94165 2.41198,-3.22768 5.47547,-5.74111 9.19151,-7.54116 3.52102,-1.70558 6.7635,-2.42929 10.86315,-2.4246 6.7762,0.008 12.86997,2.57134 17.64207,7.42187 3.72966,3.79096 5.9541,8.20045 6.90053,13.67892 0.29783,1.72395 0.29783,5.85804 0,7.58199 -0.79374,4.59461 -2.51707,8.48041 -5.27414,11.89227 -0.9791,1.21164 -3.20218,3.36139 -4.40407,4.25882 -3.54104,2.64401 -7.61257,4.27219 -12.05727,4.82161 -0.97535,0.12056 -4.76534,0.15569 -5.47996,0.0508 z m 4.7478,-1.04678 c 7.28276,-0.73779 13.96486,-4.92102 17.78494,-11.13398 4.95482,-8.05848 4.69703,-18.49866 -0.64911,-26.28809 -3.53244,-5.14684 -8.83388,-8.61189 -15.10961,-9.87574 -1.79851,-0.3622 -5.03481,-0.45378 -6.96956,-0.19724 -2.60351,0.34523 -5.1105,1.11067 -7.39715,2.25854 -5.60801,2.81513 -11.908,11.24273 -13.7692,18.41927 -0.31352,1.20889 -0.35358,1.57317 -0.34224,3.11176 0.0106,1.43821 0.0676,1.94913 0.32634,2.92505 1.66072,6.26403 6.85308,13.8349 11.86439,17.29921 1.89359,1.30905 4.59309,2.43407 7.2942,3.03988 2.41212,0.54099 4.6094,0.68019 6.967,0.44134 z"
     id="path6519"
     inkscape:connector-curvature="0" />
  <path
     style="fill:#006bff;fill-opacity:0.39215686;fill-rule:nonzero;stroke:none;stroke-width:0.00415813;stroke-miterlimit:4;stroke-dasharray:none;stroke-opacity:1;paint-order:stroke fill markers"
     d="m 125.36292,151.26149 c -2.04059,-0.076 -4.04389,-0.39187 -5.96844,-0.94112 -0.50075,-0.14291 -0.50058,-0.14285 -0.50058,-0.17637 0,-0.0208 0.005,-0.026 0.0193,-0.0218 0.0106,0.003 0.0935,0.0279 0.18427,0.0551 0.97739,0.29336 1.94121,0.51601 2.95397,0.68238 0.30939,0.0508 1.69715,0.24688 1.83179,0.25879 0.58445,0.0517 2.65355,0.0577 3.96612,0.0115 0.93386,-0.0328 1.2748,-0.0614 1.97186,-0.16538 1.55309,-0.23159 3.00837,-0.58101 4.45865,-1.07055 0.18758,-0.0633 0.38932,-0.13267 0.44832,-0.15412 l 0.10727,-0.039 v 0.0411 0.0411 l -0.11827,0.0421 c -2.43358,0.8656 -4.92749,1.34068 -7.54229,1.43676 -0.34342,0.0126 -1.46705,0.0123 -1.81193,-5.8e-4 z"
     id="path6521"
     inkscape:connector-curvature="0" />
  <path
     style="fill:#006bff;fill-opacity:0.39215686;fill-rule:nonzero;stroke:none;stroke-width:0.00415813;stroke-miterlimit:4;stroke-dasharray:none;stroke-opacity:1;paint-order:stroke fill markers"
     d="m 125.64896,150.15002 c -0.94569,-0.0293 -1.93196,-0.12985 -2.89991,-0.29572 -0.25726,-0.0441 -0.77097,-0.14031 -0.79117,-0.1482 -0.0284,-0.0111 0.0455,-0.004 0.11754,0.0109 0.13525,0.0284 0.55084,0.101 0.81211,0.14177 2.34792,0.36637 4.82121,0.35298 7.14437,-0.0387 0.0719,-0.0121 0.13877,-0.0204 0.14853,-0.0184 0.01,0.002 -0.0936,0.0221 -0.22979,0.0446 -1.48546,0.24609 -2.91118,0.34676 -4.30168,0.30372 z"
     id="path6523"
     inkscape:connector-curvature="0" />
  <path
     style="fill:#006bff;fill-opacity:0.39215686;fill-rule:nonzero;stroke:none;stroke-width:0.00415813;stroke-miterlimit:4;stroke-dasharray:none;stroke-opacity:1;paint-order:stroke fill markers"
     d="m 105.42851,140.07274 c -1.7887,-2.70007 -3.00865,-5.64501 -3.64484,-8.79863 -0.0528,-0.26151 -0.12072,-0.62471 -0.12072,-0.6451 0,-0.005 0.014,-0.01 0.0311,-0.01 0.0308,0 0.0312,9e-4 0.0504,0.11277 0.0106,0.062 0.0457,0.24644 0.0781,0.40981 0.54036,2.73043 1.54888,5.37271 2.96256,7.76172 0.26741,0.4519 0.43363,0.71158 0.95236,1.48781 l 0.0203,0.0304 h -0.0489 -0.0489 z"
     id="path6525"
     inkscape:connector-curvature="0" />
  <path
     style="fill:#006bff;fill-opacity:0.39215686;fill-rule:nonzero;stroke:none;stroke-width:0.00147638;stroke-miterlimit:4;stroke-dasharray:none;stroke-opacity:1;paint-order:stroke fill markers"
     d=""
     id="path6527"
     inkscape:connector-curvature="0" />
  <path
     style="fill:#006bff;fill-opacity:0.39215686;fill-rule:nonzero;stroke:none;stroke-width:0.00147638;stroke-miterlimit:4;stroke-dasharray:none;stroke-opacity:1;paint-order:stroke fill markers"
     d=""
     id="path6529"
     inkscape:connector-curvature="0" />
  <path
     style="fill:#006bff;fill-opacity:0.39215686;fill-rule:nonzero;stroke:none;stroke-width:0.00147638;stroke-miterlimit:4;stroke-dasharray:none;stroke-opacity:1;paint-order:stroke fill markers"
     d=""
     id="path6531"
     inkscape:connector-curvature="0" />
  <path
     style="fill:#ff0000;fill-opacity:0.39215687;fill-rule:nonzero;stroke:none;stroke-width:0.00590551;stroke-miterlimit:4;stroke-dasharray:none;stroke-opacity:1;paint-order:stroke fill markers"
     d="m 108.62476,143.96136 c -1.05705,-1.05863 -1.90317,-2.05487 -2.73039,-3.21484 -0.24384,-0.34193 -0.22755,-0.3125 -0.17296,-0.3125 0.0403,0 0.0614,0.0228 0.19204,0.20703 0.60213,0.84936 1.36059,1.77948 2.09413,2.56813 0.19636,0.21111 0.73298,0.75324 1.04386,1.05457 l 0.25627,0.2484 h -0.0665 -0.0665 z"
     id="path6541"
     inkscape:connector-curvature="0" />
  <path
     style="fill:#ff0000;fill-opacity:0.39215686;fill-rule:nonzero;stroke:none;stroke-width:0.03340662;stroke-miterlimit:4;stroke-dasharray:none;stroke-opacity:1;paint-order:stroke fill markers"
     d="m 393.67262,420.74393 c -2.90975,-0.35094 -4.92121,-0.84484 -7.17264,-1.76118 -6.96773,-2.8359 -12.35408,-8.7303 -14.51875,-15.88815 -1.48463,-4.90919 -1.40944,-10.22162 0.21354,-15.08804 1.24414,-3.7305 3.24569,-6.96033 6.05318,-9.76782 4.12492,-4.12492 9.37753,-6.61696 15.19023,-7.20681 1.36544,-0.13856 4.81195,-0.0636 6.06807,0.13204 5.22162,0.81311 9.91255,3.13865 13.64265,6.76337 2.19655,2.13449 3.84005,4.37227 5.09206,6.93332 1.26808,2.59394 1.98549,4.95762 2.40348,7.91887 0.1566,1.10943 0.15947,5.06837 0.004,6.14299 -0.66896,4.63756 -2.20835,8.40259 -4.91491,12.02081 -1.04736,1.40015 -3.3813,3.73409 -4.78145,4.78145 -3.51041,2.62591 -7.19017,4.17512 -11.53468,4.85618 -0.89157,0.13977 -4.9768,0.25565 -5.74524,0.16297 z m 4.02167,-1.80582 c 8.66488,-0.74285 15.70862,-5.45097 19.35935,-12.94 1.11111,-2.27931 1.82639,-4.55783 2.20733,-7.0314 0.19832,-1.28777 0.2706,-4.12507 0.14095,-5.53316 -0.34655,-3.7638 -1.73818,-7.68089 -3.81563,-10.74008 -1.0823,-1.59376 -3.13799,-3.83036 -4.58955,-4.99346 -2.82031,-2.25985 -6.02799,-3.96669 -9.13562,-4.86116 -3.86184,-1.11155 -7.78354,-1.16809 -11.60554,-0.16732 -8.39498,2.19818 -14.87819,9.13066 -16.86235,18.03087 -0.46695,2.09456 -0.53456,2.87035 -0.53534,6.14299 -7.8e-4,3.26957 0.0682,4.16872 0.45405,5.92202 0.742,3.37129 2.65174,6.09186 7.53272,10.73093 3.99091,3.79312 6.57283,5.07546 10.94571,5.43634 1.2804,0.10567 4.6883,0.10765 5.90392,0.003 z"
     id="path6543"
     inkscape:connector-curvature="0" />
  <path
     style="fill:#ff0000;fill-opacity:0.39215686;fill-rule:nonzero;stroke:none;stroke-width:0.00295276;stroke-miterlimit:4;stroke-dasharray:none;stroke-opacity:1;paint-order:stroke fill markers"
     d="m 372.9131,393.94642 c -0.003,-0.14354 0.0533,-0.79964 0.10146,-1.18319 0.11312,-0.90109 0.40973,-2.3031 0.7231,-3.41797 0.1038,-0.36928 0.19615,-0.67188 0.20505,-0.67188 0.003,0 -0.0215,0.0923 -0.0553,0.20508 -0.47378,1.57961 -0.79211,3.23329 -0.96285,5.00195 -0.006,0.0664 -0.0109,0.0923 -0.0115,0.066 z"
     id="path6545"
     inkscape:connector-curvature="0" />
  <path
     style="fill:#ff0000;fill-opacity:0.39215686;fill-rule:nonzero;stroke:none;stroke-width:0.00295276;stroke-miterlimit:4;stroke-dasharray:none;stroke-opacity:1;paint-order:stroke fill markers"
     d="m 370.88549,396.72268 c -0.0107,-0.12261 -0.0148,-1.2001 -0.006,-1.51368 0.0526,-1.8292 0.27522,-3.50709 0.69682,-5.25195 l 0.0335,-0.13867 h 0.0259 c 0.0142,0 0.0259,0.001 0.0259,0.003 0,0.001 -0.0247,0.10572 -0.0548,0.23167 -0.40706,1.70068 -0.62854,3.38198 -0.68029,5.1641 -0.009,0.31659 -0.005,1.4468 0.006,1.52539 l 0.005,0.0371 h -0.0234 c -0.0234,0 -0.0234,-4e-5 -0.0283,-0.0566 z"
     id="path6547"
     inkscape:connector-curvature="0" />
  <path
     style="fill:#ff0000;fill-opacity:0.39215686;fill-rule:nonzero;stroke:none;stroke-width:0.00417583;stroke-miterlimit:4;stroke-dasharray:none;stroke-opacity:1;paint-order:stroke fill markers"
     d="m 395.09603,420.85023 c -1.94216,-0.0711 -3.64513,-0.31182 -5.42413,-0.7667 -1.35015,-0.34522 -2.49368,-0.74294 -3.9478,-1.37303 -0.0414,-0.018 -0.0525,-0.0283 -0.0525,-0.0489 0,-0.0221 0.004,-0.025 0.0249,-0.0185 0.0137,0.004 0.0379,0.0143 0.0538,0.0224 0.0559,0.0284 0.39395,0.17332 0.66716,0.28598 2.04114,0.84169 3.97234,1.34997 6.40263,1.68514 1.02629,0.14154 1.16685,0.1499 2.34781,0.13967 1.58164,-0.0137 3.30033,-0.0847 4.0596,-0.16773 0.43489,-0.0475 1.65678,-0.27962 2.32094,-0.44081 0.13844,-0.0336 0.13258,-0.0333 0.13258,-0.008 0,0.0174 -0.0361,0.0285 -0.25513,0.0784 -1.53241,0.3493 -3.07776,0.5498 -4.68909,0.60838 -0.26088,0.009 -1.41129,0.012 -1.64071,0.004 z"
     id="path6549"
     inkscape:connector-curvature="0" />
  <path
     style="fill:#ff0000;fill-opacity:0.39215686;fill-rule:nonzero;stroke:none;stroke-width:0.00147638;stroke-miterlimit:4;stroke-dasharray:none;stroke-opacity:1;paint-order:stroke fill markers"
     d="m 393.6795,419.00531 c -0.88469,-0.015 -1.48157,-0.0384 -1.92774,-0.0756 -1.01049,-0.0844 -1.89688,-0.21748 -2.71875,-0.40827 -0.19151,-0.0445 -0.1814,-0.0416 -0.18289,-0.0518 -8.1e-4,-0.006 8.1e-4,-0.009 0.005,-0.009 0.003,0 0.0345,0.007 0.0696,0.0153 0.22324,0.0535 0.52572,0.11627 0.80011,0.16594 1.12228,0.20318 2.42635,0.31939 4.01562,0.35785 0.0956,0.002 0.19053,0.005 0.21094,0.005 0.0204,5.3e-4 -0.02,9.5e-4 -0.0898,9.3e-4 -0.0698,-3e-5 -0.15157,-4.6e-4 -0.18164,-9.7e-4 z"
     id="path6555"
     inkscape:connector-curvature="0" />
  <path
     style="fill:#ff0000;fill-opacity:0.39215686;fill-rule:nonzero;stroke:none;stroke-width:0.00147638;stroke-miterlimit:4;stroke-dasharray:none;stroke-opacity:1;paint-order:stroke fill markers"
     d="m 388.75741,418.45509 c -0.60058,-0.15473 -1.11381,-0.32084 -1.63683,-0.52975 -0.24109,-0.0963 -0.60145,-0.25323 -0.60145,-0.26191 0,-0.002 0.0101,10e-4 0.0225,0.007 0.72836,0.32722 1.39794,0.55948 2.18817,0.75901 0.10969,0.0277 0.11888,0.0307 0.11946,0.0386 4.2e-4,0.006 -0.002,0.008 -0.006,0.008 -0.003,-1.7e-4 -0.0422,-0.01 -0.0863,-0.0209 z"
     id="path6557"
     inkscape:connector-curvature="0" />
  <path
     style="fill:#ff0000;fill-opacity:0.39215686;fill-rule:nonzero;stroke:none;stroke-width:0.00147638;stroke-miterlimit:4;stroke-dasharray:none;stroke-opacity:1;paint-order:stroke fill markers"
     d="m 385.56851,418.64422 c -0.78331,-0.35832 -1.46065,-0.70693 -2.17285,-1.1183 l -0.11817,-0.0682 v -0.0333 -0.0333 l 0.009,0.006 c 0.0121,0.008 0.16434,0.0959 0.28028,0.16211 0.62639,0.35783 1.37309,0.73909 2.02612,1.0345 0.0706,0.0319 0.0926,0.0435 0.0869,0.0456 -0.0119,0.004 -0.0106,0.0355 0.002,0.0481 0.005,0.005 0.007,0.009 0.005,0.009 -0.003,-1.5e-4 -0.0557,-0.0236 -0.11799,-0.0521 z"
     id="path6559"
     inkscape:connector-curvature="0" />
  <path
     style="fill:#ff6900;fill-opacity:0.39215687;fill-rule:nonzero;stroke:none;stroke-width:0.26725295;stroke-miterlimit:4;stroke-dasharray:none;stroke-opacity:1;paint-order:stroke fill markers"
     d="m 224.9093,291.25683 c -28.55588,-5.59462 -48.36161,-30.59362 -46.80038,-59.07193 0.50035,-9.12671 1.7739,-14.04333 5.77798,-22.30628 7.01428,-14.47488 19.50968,-24.98556 35.36555,-29.74825 8.522,-2.55979 21.74892,-2.75052 30.24554,-0.43614 15.99719,4.35745 30.2716,16.39285 37.32807,31.473 3.52599,7.53529 5.04218,14.69609 5.04218,23.81368 0,10.08603 -1.59985,16.75137 -6.27977,26.16296 -2.85938,5.75036 -4.36289,7.74091 -10.44297,13.82578 -5.86065,5.86525 -8.22032,7.68142 -13.49398,10.38593 -3.51522,1.80272 -8.76549,3.9483 -11.66726,4.76795 -6.80778,1.92297 -18.37573,2.4458 -25.07496,1.1333 z"
     id="path6563"
     inkscape:connector-curvature="0" />
  <path
     style="fill:#ff6900;fill-opacity:0.39215686;fill-rule:nonzero;stroke:none;stroke-width:0.03340662;stroke-miterlimit:4;stroke-dasharray:none;stroke-opacity:1;paint-order:stroke fill markers"
     d="m 231.67798,292.36733 c -12.47043,-0.81009 -23.68901,-5.23232 -33.26359,-13.11209 -1.36108,-1.12016 -1.45009,-1.21413 -1.41337,-1.49211 0.0267,-0.20182 0.0976,-0.1581 0.988,0.60913 6.45516,5.56207 14.73882,9.85776 23.24889,12.05626 4.77921,1.23466 7.22789,1.53094 12.69397,1.53591 7.66407,0.007 13.64654,-0.85053 18.64994,-2.67318 2.91719,-1.06269 5.92326,-2.35464 8.66206,-3.7228 4.01322,-2.0048 6.267,-3.50117 9.36916,-6.22052 1.23384,-1.08158 7.49831,-7.32248 8.70782,-8.67504 2.64537,-2.95828 4.08794,-5.13162 6.1752,-9.30346 3.77558,-7.54629 5.49367,-13.18188 6.15036,-20.17406 0.21856,-2.3271 0.30155,-6.09004 0.19284,-8.74343 -0.11597,-2.83045 -0.18638,-3.73366 -0.45602,-5.84937 -0.0966,-0.75831 -0.17571,-1.40465 -0.17571,-1.43631 0,-0.0317 0.0931,-0.0576 0.20685,-0.0576 0.19889,0 0.21422,0.0502 0.39806,1.30373 0.92164,6.28449 0.83343,12.62464 -0.2604,18.71623 -3.01042,16.76514 -13.3257,31.32104 -28.23104,39.83685 -7.24266,4.13793 -15.29636,6.61344 -23.82066,7.3219 -1.53719,0.12776 -6.33187,0.17675 -7.82236,0.0799 z"
     id="path6565"
     inkscape:connector-curvature="0" />
  <path
     style="fill:#ff6900;fill-opacity:0.39215686;fill-rule:nonzero;stroke:none;stroke-width:0.01670331;stroke-miterlimit:4;stroke-dasharray:none;stroke-opacity:1;paint-order:stroke fill markers"
     d="m 192.17609,273.2907 c -6.25523,-7.03565 -10.57015,-15.10011 -12.85764,-24.03058 -1.12068,-4.37521 -1.69204,-8.59263 -1.77372,-13.09253 l -0.0283,-1.55784 h 0.24999 0.24999 l 4.2e-4,1.07171 c 0.003,7.03758 1.47437,14.3711 4.22628,21.06098 2.45567,5.96971 6.17806,11.84582 10.43915,16.47905 0.25886,0.28147 0.51684,0.5688 0.5733,0.63852 l 0.10264,0.12675 h -0.28164 -0.28164 l -0.61885,-0.69606 z"
     id="path6567"
     inkscape:connector-curvature="0" />
  <path
     style="fill:#ff6900;fill-opacity:0.39215686;fill-rule:nonzero;stroke:none;stroke-width:0.01670331;stroke-miterlimit:4;stroke-dasharray:none;stroke-opacity:1;paint-order:stroke fill markers"
     d="m 177.54658,233.45594 c 0.14259,-5.72391 1.21957,-11.73946 3.04424,-17.00371 l 0.19148,-0.55242 0.22576,-0.0132 0.22576,-0.0132 -0.1934,0.51322 c -1.32844,3.52521 -2.14485,7.0905 -2.60065,11.35717 -0.17385,1.62741 -0.3527,4.23032 -0.40463,5.88888 l -0.0308,0.98332 h -0.24333 -0.24334 z"
     id="path6569"
     inkscape:connector-curvature="0" />
  <path
     style="fill:#ff6900;fill-opacity:0.39215686;fill-rule:nonzero;stroke:none;stroke-width:0.04724409;stroke-miterlimit:4;stroke-dasharray:none;stroke-opacity:1;paint-order:stroke fill markers"
     d="m 180.92962,215.69288 c 0,-0.28302 1.44942,-3.77302 2.30706,-5.55508 2.04864,-4.25678 4.63382,-8.25145 7.80631,-12.0625 1.48805,-1.78756 4.87684,-5.20526 6.69126,-6.74835 2.78585,-2.36925 6.71406,-5.12719 7.30105,-5.12595 0.26348,5.5e-4 0.0615,0.17579 -0.98068,0.85083 -8.79137,5.69438 -15.69633,13.5226 -20.26218,22.97142 -1.00844,2.08692 -2.48782,5.46379 -2.48782,5.67876 0,0.0678 -0.0844,0.12329 -0.1875,0.12329 -0.10313,0 -0.1875,-0.0596 -0.1875,-0.13242 z"
     id="path6571"
     inkscape:connector-curvature="0" />
  <path
     style="fill:#ff6900;fill-opacity:0.39215686;fill-rule:nonzero;stroke:none;stroke-width:0.03340662;stroke-miterlimit:4;stroke-dasharray:none;stroke-opacity:1;paint-order:stroke fill markers"
     d="m 291.13975,224.92425 c -10e-4,-0.33989 -0.60604,-3.22639 -0.96789,-4.61829 -1.73239,-6.66389 -4.99175,-13.32147 -9.34682,-19.09189 -1.83851,-2.436 -4.30366,-5.24147 -6.03036,-6.86287 l -0.83355,-0.78272 h 0.39914 0.39913 l 1.4509,1.48051 c 7.63669,7.79256 12.92323,17.77928 15.10216,28.52929 0.14759,0.72813 0.26869,1.37359 0.26911,1.43436 4.4e-4,0.0608 -0.0987,0.11048 -0.2202,0.11048 -0.17004,0 -0.22112,-0.0458 -0.22162,-0.19887 z"
     id="path6573"
     inkscape:connector-curvature="0" />
  <path
     style="fill:#ff6900;fill-opacity:0.39215686;fill-rule:nonzero;stroke:none;stroke-width:0.02362205;stroke-miterlimit:4;stroke-dasharray:none;stroke-opacity:1;paint-order:stroke fill markers"
     d="m 273.36077,193.00987 c -7.0951,-6.48498 -15.91084,-11.34145 -24.4951,-13.49401 -7.30826,-1.83259 -17.85192,-1.94332 -26.09375,-0.27404 -4.06624,0.82357 -8.68769,2.47015 -13.17565,4.69436 l -1.61315,0.79947 0.0194,-0.23441 0.0194,-0.2344 1.56269,-0.78125 c 6.26174,-3.13049 13.13134,-5.07496 20.18731,-5.71411 2.6999,-0.24456 6.08468,-0.29549 8.71875,-0.1312 9.35567,0.58352 18.05314,3.29201 26.14761,8.14266 3.36676,2.01755 7.21586,4.95871 10.0069,7.64645 0.12157,0.11706 0.11763,0.1187 -0.28615,0.1187 h -0.40941 z"
     id="path6575"
     inkscape:connector-curvature="0" />
  <path
     style="fill:#ff6900;fill-opacity:0.39215686;fill-rule:nonzero;stroke:none;stroke-width:0.04724409;stroke-miterlimit:4;stroke-dasharray:none;stroke-opacity:1;paint-order:stroke fill markers"
     d="m 205.02266,186.13906 c -0.0587,-0.095 0.3237,-0.33644 2.21754,-1.40021 0.60191,-0.33809 0.72379,-0.37184 0.6875,-0.19034 -0.0249,0.12467 -0.58769,0.53818 -1.29411,0.9509 -1.25599,0.7338 -1.49426,0.82841 -1.61093,0.63965 z"
     id="path6577"
     inkscape:connector-curvature="0" />
  <path
     style="fill:#ff6900;fill-opacity:0.39215686;fill-rule:nonzero;stroke:none;stroke-width:0.03340662;stroke-miterlimit:4;stroke-dasharray:none;stroke-opacity:1;paint-order:stroke fill markers"
     d="m 194.8768,276.05614 c -1.07584,-1.04992 -1.95608,-1.94486 -1.95608,-1.98874 0,-0.0439 0.0938,-0.0798 0.20837,-0.0798 0.14743,0 0.47061,0.2665 1.10517,0.91135 0.49325,0.50124 1.32737,1.3036 1.85359,1.78303 0.78903,0.71885 0.94988,0.90774 0.91745,1.07738 -0.0216,0.11314 -0.0693,0.20571 -0.10588,0.20571 -0.0366,0 -0.94678,-0.85902 -2.02262,-1.90894 z"
     id="path6579"
     inkscape:connector-curvature="0" />
</svg>
